<svg xmlns="http://www.w3.org/2000/svg" version="1.0" width="209.000000pt" height="252.000000pt" viewBox="0 0 209.000000 252.000000" preserveAspectRatio="xMidYMid meet">

<g transform="translate(0.000000,252.000000) scale(0.100000,-0.100000)" fill="#0f599e" stroke="none">
<path d="M185 2318 c-15 -40 -22 -120 -18 -200 2 -51 6 -94 9 -97 2 -2 4 40 5 95 0 54 4 119 7 144 l7 45 47 -67 c65 -90 162 -288 205 -416 30 -92 35 -119 35 -202 1 -95 -24 -200 -47 -204 -15 -2 -118 175 -172 297 -55 123 -68 128 -23 8 38 -103 77 -182 134 -270 l45 -70 -31 -61 c-29 -60 -32 -83 -6 -63 7 5 31 17 54 26 39 15 42 15 77 -6 19 -12 67 -58 105 -103 137 -158 369 -333 589 -444 l101 -51 -5 -77 c-3 -45 0 -102 7 -137 l13 -60 13 53 c17 64 71 151 116 185 45 35 149 83 223 102 33 9 119 20 190 23 l130 7 -89 18 c-117 24 -312 25 -424 2 -76 -15 -86 -15 -131 0 -52 17 -151 82 -182 118 -58 68 -119 220 -119 296 0 88 99 219 198 264 l47 20 -61 29 c-84 39 -178 65 -268 73 l-77 7 -41 71 c-70 120 -115 182 -208 284 -127 139 -405 373 -445 373 -3 0 -8 -6 -10 -12z m350 -338 c14 -27 14 -31 0 -36 -8 -3 -22 -4 -30 0 -20 7 -39 51 -31 71 8 22 41 4 61 -35z m100 -362 c-23 -44 -44 -67 -78 -84 -24 -13 -29 -13 -42 0 -13 13 -10 20 21 58 39 47 54 57 54 37 0 -7 -17 -30 -37 -51 -20 -21 -32 -38 -26 -38 7 0 35 27 64 60 29 33 55 58 57 56 2 -2 -4 -19 -13 -38z m-60 -343 c22 -13 34 -25 26 -25 -14 0 -81 38 -81 46 0 9 17 3 55 -21z" fill="#0f599e"/>
<path d="M215 1921 c11 -13 48 -52 83 -88 34 -35 60 -67 58 -72 -3 -4 13 -25 36 -47 22 -21 39 -34 36 -29 -2 6 -12 26 -21 45 -22 50 -74 107 -148 164 -35 28 -55 40 -44 27z" fill="#0f599e"/>
<path d="M206 1842 c-2 -4 11 -12 30 -18 19 -6 34 -10 34 -8 0 9 -59 33 -64 26z" fill="#0f599e"/>
<path d="M310 1786 c0 -2 8 -10 18 -17 15 -13 16 -12 3 4 -13 16 -21 21 -21 13z" fill="#0f599e"/>
</g>
</svg>