<svg width="317" height="55" viewBox="0 0 317 55" fill="none" xmlns="http://www.w3.org/2000/svg">
<path d="M86.4877 36.5403V19.7403H92.1517V36.5403H86.4877Z" fill="#D8EDFF"/>
<path d="M111.722 36.9243C110.378 36.9243 109.13 36.7163 107.978 36.3003C106.842 35.8683 105.85 35.2603 105.002 34.4763C104.17 33.6923 103.522 32.7643 103.058 31.6923C102.594 30.6203 102.362 29.4363 102.362 28.1403C102.362 26.8443 102.594 25.6603 103.058 24.5883C103.522 23.5163 104.17 22.5883 105.002 21.8043C105.85 21.0203 106.842 20.4203 107.978 20.0043C109.13 19.5723 110.378 19.3563 111.722 19.3563C113.37 19.3563 114.826 19.6443 116.09 20.2203C117.37 20.7963 118.426 21.6283 119.258 22.7163L115.682 25.9083C115.186 25.2843 114.634 24.8043 114.026 24.4683C113.434 24.1163 112.762 23.9403 112.01 23.9403C111.418 23.9403 110.882 24.0363 110.402 24.2283C109.922 24.4203 109.506 24.7003 109.154 25.0683C108.818 25.4363 108.554 25.8843 108.362 26.4123C108.17 26.9243 108.074 27.5003 108.074 28.1403C108.074 28.7803 108.17 29.3643 108.362 29.8923C108.554 30.4043 108.818 30.8443 109.154 31.2123C109.506 31.5803 109.922 31.8603 110.402 32.0523C110.882 32.2443 111.418 32.3403 112.01 32.3403C112.762 32.3403 113.434 32.1723 114.026 31.8363C114.634 31.4843 115.186 30.9963 115.682 30.3723L119.258 33.5643C118.426 34.6363 117.37 35.4683 116.09 36.0603C114.826 36.6363 113.37 36.9243 111.722 36.9243Z" fill="#D8EDFF"/>
<path d="M127.766 36.7803C126.278 36.7803 124.958 36.4923 123.806 35.9163C122.67 35.3243 121.774 34.5163 121.118 33.4923C120.462 32.4683 120.134 31.2923 120.134 29.9643C120.134 28.6363 120.462 27.4603 121.118 26.4363C121.774 25.4123 122.67 24.6123 123.806 24.0363C124.958 23.4603 126.278 23.1723 127.766 23.1723C129.254 23.1723 130.574 23.4603 131.726 24.0363C132.878 24.6123 133.774 25.4123 134.414 26.4363C135.07 27.4603 135.398 28.6363 135.398 29.9643C135.398 31.2923 135.07 32.4683 134.414 33.4923C133.774 34.5163 132.878 35.3243 131.726 35.9163C130.574 36.4923 129.254 36.7803 127.766 36.7803ZM127.766 32.5563C128.166 32.5563 128.526 32.4603 128.846 32.2683C129.166 32.0763 129.422 31.7883 129.614 31.4043C129.806 31.0043 129.902 30.5243 129.902 29.9643C129.902 29.3883 129.806 28.9163 129.614 28.5483C129.422 28.1643 129.166 27.8763 128.846 27.6843C128.526 27.4923 128.166 27.3963 127.766 27.3963C127.366 27.3963 127.006 27.4923 126.686 27.6843C126.366 27.8763 126.11 28.1643 125.918 28.5483C125.726 28.9163 125.63 29.3883 125.63 29.9643C125.63 30.5243 125.726 31.0043 125.918 31.4043C126.11 31.7883 126.366 32.0763 126.686 32.2683C127.006 32.4603 127.366 32.5563 127.766 32.5563Z" fill="#D8EDFF"/>
<path d="M187.237 36.7803C185.749 36.7803 184.429 36.4923 183.277 35.9163C182.141 35.3243 181.245 34.5163 180.589 33.4923C179.933 32.4683 179.605 31.2923 179.605 29.9643C179.605 28.6363 179.933 27.4603 180.589 26.4363C181.245 25.4123 182.141 24.6123 183.277 24.0363C184.429 23.4603 185.749 23.1723 187.237 23.1723C188.725 23.1723 190.045 23.4603 191.197 24.0363C192.349 24.6123 193.245 25.4123 193.885 26.4363C194.541 27.4603 194.869 28.6363 194.869 29.9643C194.869 31.2923 194.541 32.4683 193.885 33.4923C193.245 34.5163 192.349 35.3243 191.197 35.9163C190.045 36.4923 188.725 36.7803 187.237 36.7803ZM187.237 32.5563C187.637 32.5563 187.997 32.4603 188.317 32.2683C188.637 32.0763 188.893 31.7883 189.085 31.4043C189.277 31.0043 189.373 30.5243 189.373 29.9643C189.373 29.3883 189.277 28.9163 189.085 28.5483C188.893 28.1643 188.637 27.8763 188.317 27.6843C187.997 27.4923 187.637 27.3963 187.237 27.3963C186.837 27.3963 186.477 27.4923 186.157 27.6843C185.837 27.8763 185.581 28.1643 185.389 28.5483C185.197 28.9163 185.101 29.3883 185.101 29.9643C185.101 30.5243 185.197 31.0043 185.389 31.4043C185.581 31.7883 185.837 32.0763 186.157 32.2683C186.477 32.4603 186.837 32.5563 187.237 32.5563Z" fill="#D8EDFF"/>
<path d="M264.759 36.7803C263.639 36.7803 262.535 36.6603 261.447 36.4203C260.359 36.1803 259.479 35.8683 258.807 35.4843L260.295 31.9083C260.919 32.2763 261.639 32.5643 262.455 32.7723C263.287 32.9803 264.095 33.0843 264.879 33.0843C265.535 33.0843 265.975 33.0283 266.199 32.9163C266.439 32.8043 266.559 32.6523 266.559 32.4603C266.559 32.2683 266.423 32.1323 266.151 32.0523C265.879 31.9563 265.519 31.8843 265.071 31.8363C264.623 31.7883 264.127 31.7323 263.583 31.6683C263.055 31.5883 262.519 31.4763 261.975 31.3323C261.431 31.1883 260.935 30.9723 260.487 30.6843C260.039 30.3963 259.679 30.0123 259.407 29.5323C259.135 29.0363 258.999 28.4123 258.999 27.6603C258.999 26.8283 259.247 26.0763 259.743 25.4043C260.255 24.7323 261.007 24.1963 261.999 23.7963C263.007 23.3803 264.247 23.1723 265.719 23.1723C266.679 23.1723 267.639 23.2603 268.599 23.4363C269.559 23.6123 270.383 23.8843 271.071 24.2523L269.583 27.8283C268.911 27.4603 268.247 27.2123 267.591 27.0843C266.951 26.9403 266.351 26.8683 265.791 26.8683C265.103 26.8683 264.631 26.9323 264.375 27.0603C264.135 27.1883 264.015 27.3323 264.015 27.4923C264.015 27.6843 264.151 27.8283 264.423 27.9243C264.695 28.0203 265.055 28.0923 265.503 28.1403C265.951 28.1883 266.439 28.2523 266.967 28.3323C267.511 28.3963 268.047 28.5083 268.575 28.6683C269.119 28.8123 269.615 29.0283 270.063 29.3163C270.511 29.6043 270.871 29.9963 271.143 30.4923C271.415 30.9723 271.551 31.5883 271.551 32.3403C271.551 33.1243 271.303 33.8603 270.807 34.5483C270.311 35.2203 269.559 35.7643 268.551 36.1803C267.543 36.5803 266.279 36.7803 264.759 36.7803Z" fill="#D8EDFF"/>
<path d="M135.6 53.0202V52.5049V48.8602H137.136V53.2282L135.6 53.0202Z" fill="#1589EE"/>
<path d="M183.152 54.5242V53.4118V52.7322L183.072 52.3962V50.7482V49.6442V49.3402C183.072 48.6895 182.88 48.1882 182.496 47.8362C182.123 47.4735 181.557 47.2922 180.8 47.2922C180.299 47.2922 179.808 47.3775 179.328 47.5482C178.848 47.7082 178.443 47.9268 178.112 48.2042L177.472 47.0522C177.909 46.7002 178.432 46.4335 179.04 46.2522C179.659 46.0602 180.304 45.9642 180.976 45.9642C182.139 45.9642 183.035 46.2468 183.664 46.8122C184.293 47.3775 184.608 48.2415 184.608 49.4042V54.5242H183.152Z" fill="#1589EE"/>
<path d="M198.066 54.6202C197.213 54.6202 196.456 54.4335 195.794 54.0602C195.133 53.6868 194.61 53.1748 194.226 52.5242C193.842 51.8628 193.65 51.1162 193.65 50.2842C193.65 49.4415 193.842 48.6948 194.226 48.0442C194.61 47.3935 195.133 46.8868 195.794 46.5242C196.456 46.1508 197.213 45.9642 198.066 45.9642C198.909 45.9642 199.661 46.1508 200.322 46.5242C200.994 46.8868 201.517 47.3935 201.89 48.0442C202.274 48.6842 202.466 49.4308 202.466 50.2842C202.466 51.1268 202.274 51.8735 201.89 52.5242C201.517 53.1748 200.994 53.6868 200.322 54.0602C199.661 54.4335 198.909 54.6202 198.066 54.6202ZM198.066 53.2762C198.61 53.2762 199.096 53.1535 199.522 52.9082C199.96 52.6628 200.301 52.3162 200.546 51.8682C200.792 51.4095 200.914 50.8815 200.914 50.2842C200.914 49.6762 200.792 49.1535 200.546 48.7162C200.301 48.2682 199.96 47.9215 199.522 47.6762C199.096 47.4308 198.61 47.3082 198.066 47.3082C197.522 47.3082 197.037 47.4308 196.61 47.6762C196.184 47.9215 195.842 48.2682 195.586 48.7162C195.33 49.1535 195.202 49.6762 195.202 50.2842C195.202 50.8815 195.33 51.4095 195.586 51.8682C195.842 52.3162 196.184 52.6628 196.61 52.9082C197.037 53.1535 197.522 53.2762 198.066 53.2762Z" fill="#1589EE"/>
<path fill-rule="evenodd" clip-rule="evenodd" d="M0.106599 0.553253C0.107795 0.548954 0.109121 0.544681 0.110576 0.540433C0.854212 -1.6301 35.3988 2.89317 46.6437 11.3135C54.2804 6.89514 58.5708 5.57382 66.2383 5.19913C59.3384 12.5245 60.5796 22.1723 67.3816 27.6378L63.3037 36.5405C59.2365 36.1338 63.7603 36.8996 43.3037 34.5405C36.3037 33.7333 36.3037 33.0405 36.3037 37.0405C36.3037 37.0405 36.3037 39.5405 35.8037 43.0405L33.5398 32.2248C23.8152 28.2569 16.6395 23.6654 12.5981 19.14L22.7787 18.9547L14.9409 16.8758L17.0228 18.2209C14.3208 16.9469 12.7265 16.5082 9.78142 16.0828C13.8228 14.9822 22.1505 16.0828 27.0491 20.3629L13.9453 19.6292C21.2505 25.294 25.5494 27.6075 33.4174 30.8797C32.5601 17.4288 15.7823 7.40109 1.20879 1.89735C2.62483 6.09627 4.82077 9.36376 9.16909 15.4713C3.96167 9.69077 -0.776045 3.72601 0.106599 0.553253ZM35.3927 15.5306C35.4081 20.3777 35.0967 22.3848 33.9231 24.5799C36.0744 22.4334 36.4949 20.0552 35.3927 15.5306ZM33.8006 17.2426C32.8832 19.9346 32.6691 21.4358 32.9434 24.0908L33.4332 26.6588V20.6667L34.0456 22.3787L33.8006 19.1992L34.413 19.4438L33.8006 17.2426ZM39.4341 33.3843C40.5881 32.544 42.2863 32.317 47.5168 32.406L45.6798 32.8955L44.5776 32.7732V33.3843L41.7609 33.1401V33.507L39.4341 33.3843ZM21.468 7.73466C22.6379 8.23145 23.7949 8.14433 24.0523 7.54007C24.3096 6.93582 23.5698 6.04324 22.3999 5.54645C21.2299 5.04966 20.0729 5.13679 19.8156 5.74104C19.5582 6.3453 20.298 7.23787 21.468 7.73466Z" fill="#1589EE"/>
<path d="M316.999 16.7266C305.855 19.9069 298.192 24.7501 291.404 32.3795C282.931 34.5182 276.982 32.7929 272.304 29.5404C274.358 34.5681 271.804 39.0404 262.304 37.5404C262.304 37.5404 264.59 40.0404 272.304 40.0404C277.304 40.0404 277.258 39.7602 281.803 39.578C284.319 39.2835 286.963 38.8796 289.812 38.3717C289.839 38.4851 289.867 38.5972 289.895 38.708L290.062 38.6784C290.68 41.2578 291.617 43.0875 292.846 44.6149C294.338 46.4131 296.213 47.8432 298.36 49.4809L298.384 49.4999C292.835 35.0534 301.813 24.5538 316.999 16.7266Z" fill="#1589EE"/>
<path d="M289.895 38.708C289.867 38.5972 289.839 38.4851 289.812 38.3717C286.963 38.8796 284.319 39.2835 281.803 39.578C284.339 39.4764 287.005 39.2154 289.895 38.708Z" fill="#1589EE"/>
<path d="M289.895 38.708C290.54 41.2081 291.548 43.0508 292.846 44.6149C291.617 43.0875 290.68 41.2578 290.062 38.6784L289.895 38.708Z" fill="#1589EE"/>
<path fill-rule="evenodd" clip-rule="evenodd" d="M72.1917 19.7403L64.8478 36.5403H70.6077L71.7331 33.6123H78.1224L79.2478 36.5403H85.1038L77.7598 19.7403H72.1917ZM76.5542 29.5323L74.9277 25.3007L73.3013 29.5323H70.6558L69.2158 33.6123H71.7331L73.3013 29.5323H76.5542Z" fill="#D8EDFF"/>
<path d="M141.68 26.1243L142.736 27.1803V24.6332C142.325 25.0407 141.973 25.5378 141.68 26.1243Z" fill="#D8EDFF"/>
<path d="M157.616 23.7963C156.832 23.3803 155.944 23.1723 154.952 23.1723C153.736 23.1723 152.664 23.4843 151.736 24.1083C151.297 24.4006 150.909 24.7483 150.57 25.1514C150.898 25.6407 151.142 26.2291 151.304 26.9163L149.648 26.6523C149.888 26.1083 150.182 25.6243 150.53 25.2003C150.543 25.1839 150.557 25.1676 150.57 25.1514C150.28 24.7181 149.924 24.3624 149.504 24.0843C148.624 23.4763 147.608 23.1723 146.456 23.1723C145.432 23.1723 144.504 23.4203 143.672 23.9163C143.332 24.1125 143.02 24.3515 142.736 24.6332V27.1803L141.68 26.1243C141.973 25.5378 142.325 25.0407 142.736 24.6332V23.4123H137.576V36.5403H143V30.1323C143 29.5403 143.072 29.0763 143.216 28.7403C143.376 28.3883 143.584 28.1323 143.84 27.9723C144.096 27.8123 144.384 27.7323 144.704 27.7323C145.168 27.7323 145.528 27.9083 145.784 28.2603C146.04 28.5963 146.168 29.1723 146.168 29.9883V36.5403H151.592V30.1323C151.592 29.5403 151.664 29.0763 151.808 28.7403C151.968 28.3883 152.176 28.1323 152.432 27.9723C152.688 27.8123 152.976 27.7323 153.296 27.7323C153.728 27.7323 154.08 27.9083 154.352 28.2603C154.624 28.5963 154.76 29.1723 154.76 29.9883V36.5403H160.184V29.0523C160.184 27.6763 159.952 26.5563 159.488 25.6923C159.04 24.8283 158.416 24.1963 157.616 23.7963Z" fill="#D8EDFF"/>
<path d="M149.648 26.6523L151.304 26.9163C151.142 26.2291 150.898 25.6407 150.57 25.1514C150.557 25.1676 150.543 25.1839 150.53 25.2003C150.182 25.6243 149.888 26.1083 149.648 26.6523Z" fill="#D8EDFF"/>
<path fill-rule="evenodd" clip-rule="evenodd" d="M168.945 36.0603C169.697 36.5403 170.641 36.7803 171.777 36.7803C172.929 36.7803 173.985 36.5083 174.945 35.9643C175.905 35.4203 176.673 34.6443 177.249 33.6363C177.825 32.6123 178.113 31.3963 178.113 29.9883C178.113 28.5803 177.825 27.3723 177.249 26.3643C176.673 25.3403 175.905 24.5563 174.945 24.0123C173.985 23.4523 172.929 23.1723 171.777 23.1723C170.577 23.1723 169.609 23.4123 168.873 23.8923C168.616 24.0594 168.384 24.2585 168.177 24.4897V25.1883L168.201 29.9883L168.441 34.7883V35.6534C168.597 35.8038 168.765 35.9394 168.945 36.0603ZM171.561 32.2683C171.241 32.4603 170.881 32.5563 170.481 32.5563C170.081 32.5563 169.721 32.4603 169.401 32.2683C169.081 32.0763 168.825 31.7883 168.633 31.4043C168.441 31.0203 168.345 30.5483 168.345 29.9883C168.345 29.4123 168.441 28.9323 168.633 28.5483C168.825 28.1643 169.081 27.8763 169.401 27.6843C169.721 27.4923 170.081 27.3963 170.481 27.3963C170.881 27.3963 171.241 27.4923 171.561 27.6843C171.881 27.8763 172.137 28.1643 172.329 28.5483C172.521 28.9323 172.617 29.4123 172.617 29.9883C172.617 30.5483 172.521 31.0203 172.329 31.4043C172.137 31.7883 171.881 32.0763 171.561 32.2683Z" fill="#D8EDFF"/>
<path fill-rule="evenodd" clip-rule="evenodd" d="M208.903 23.7963C208.087 23.3803 207.175 23.1723 206.167 23.1723C205.095 23.1723 204.119 23.4203 203.239 23.9163C202.861 24.1331 202.517 24.3973 202.207 24.7088V23.4123H197.047V36.5403H202.471V30.3723C202.471 29.7163 202.559 29.1963 202.735 28.8123C202.927 28.4283 203.175 28.1563 203.479 27.9963C203.799 27.8203 204.143 27.7323 204.511 27.7323C205.007 27.7323 205.399 27.9083 205.687 28.2603C205.975 28.5963 206.119 29.1723 206.119 29.9883V36.5403H211.543V29.0523C211.543 27.6763 211.303 26.5563 210.823 25.6923C210.359 24.8283 209.719 24.1963 208.903 23.7963ZM202.207 27.2523V24.7088L202.206 24.7097C201.807 25.1108 201.463 25.5903 201.175 26.1483L202.207 27.2523Z" fill="#D8EDFF"/>
<path d="M201.175 26.1483L202.207 27.2523V24.7088L202.206 24.7097C201.807 25.1108 201.463 25.5903 201.175 26.1483Z" fill="#D8EDFF"/>
<path fill-rule="evenodd" clip-rule="evenodd" d="M221.861 36.7803C220.261 36.7803 218.861 36.4843 217.661 35.8923C216.477 35.3003 215.557 34.4923 214.901 33.4683C214.245 32.4283 213.917 31.2603 213.917 29.9643C213.917 28.6363 214.237 27.4603 214.877 26.4363C215.533 25.4123 216.421 24.6123 217.541 24.0363C218.677 23.4603 219.949 23.1723 221.357 23.1723C222.653 23.1723 223.845 23.4283 224.933 23.9403C226.037 24.4523 226.917 25.2123 227.573 26.2203C228.245 27.2283 228.581 28.4763 228.581 29.9643C228.581 30.1563 228.573 30.3723 228.557 30.6123C228.541 30.8363 228.525 31.0443 228.509 31.2363H219.402C219.281 30.9114 219.221 30.5434 219.221 30.1323V29.3163C219.221 29.0651 219.242 28.8331 219.284 28.6203H223.519C223.524 28.6434 223.529 28.6667 223.534 28.6903C223.57 28.8836 223.589 29.0923 223.589 29.3163L225.629 28.6203H223.519C223.471 28.3996 223.399 28.1996 223.301 28.0203C223.125 27.6523 222.877 27.3723 222.557 27.1803C222.237 26.9723 221.853 26.8683 221.405 26.8683C220.957 26.8683 220.565 26.9723 220.229 27.1803C219.909 27.3723 219.661 27.6523 219.485 28.0203C219.395 28.1996 219.328 28.3996 219.284 28.6203H218.405V31.2363H219.402C219.446 31.354 219.497 31.466 219.557 31.5723C219.781 31.9723 220.101 32.2763 220.517 32.4843C220.933 32.6763 221.437 32.7723 222.029 32.7723C222.637 32.7723 223.133 32.6923 223.517 32.5323C223.917 32.3723 224.333 32.1323 224.765 31.8123L227.597 34.6683C226.957 35.3563 226.165 35.8843 225.221 36.2523C224.293 36.6043 223.173 36.7803 221.861 36.7803Z" fill="#D8EDFF"/>
<path d="M218.405 28.6203V31.2363H219.402C219.281 30.9114 219.221 30.5434 219.221 30.1323V29.3163C219.221 29.0651 219.242 28.8331 219.284 28.6203H218.405Z" fill="#D8EDFF"/>
<path d="M223.589 29.3163L225.629 28.6203H223.519C223.524 28.6434 223.529 28.6667 223.534 28.6903C223.57 28.8836 223.589 29.0923 223.589 29.3163Z" fill="#D8EDFF"/>
<path fill-rule="evenodd" clip-rule="evenodd" d="M242.628 23.7963C241.812 23.3803 240.901 23.1723 239.893 23.1723C238.821 23.1723 237.845 23.4203 236.965 23.9163C236.587 24.1331 236.243 24.3973 235.932 24.7088V23.4123H230.773V36.5403H236.197V30.3723C236.197 29.7163 236.284 29.1963 236.46 28.8123C236.652 28.4283 236.9 28.1563 237.204 27.9963C237.524 27.8203 237.868 27.7323 238.236 27.7323C238.732 27.7323 239.125 27.9083 239.413 28.2603C239.701 28.5963 239.844 29.1723 239.844 29.9883V36.5403H245.269V29.0523C245.269 27.6763 245.029 26.5563 244.549 25.6923C244.085 24.8283 243.444 24.1963 242.628 23.7963ZM235.932 27.2523V24.7088L235.932 24.7097C235.532 25.1108 235.188 25.5903 234.9 26.1483L235.932 27.2523Z" fill="#D8EDFF"/>
<path d="M234.9 26.1483L235.932 27.2523V24.7088L235.932 24.7097C235.532 25.1108 235.188 25.5903 234.9 26.1483Z" fill="#D8EDFF"/>
<path fill-rule="evenodd" clip-rule="evenodd" d="M250.216 35.4843C251.224 36.3483 252.632 36.7803 254.44 36.7803C255.08 36.7803 255.688 36.7243 256.264 36.6123C256.856 36.5003 257.36 36.3243 257.776 36.0843L256.48 32.3163C256.128 32.5563 255.72 32.6763 255.256 32.6763C254.936 32.6763 254.664 32.5643 254.44 32.3403C254.232 32.1163 254.128 31.8043 254.128 31.4043V28.0923H256.816V24.1323H254.128V20.4603H248.704V24.1323H246.904V28.0923H248.704V31.4523C248.704 33.2603 249.208 34.6043 250.216 35.4843ZM248.704 28.0923H254.128V24.1323H248.704V28.0923Z" fill="#D8EDFF"/>
<path d="M248.704 28.0923H254.128V24.1323H248.704V28.0923Z" fill="#D8EDFF"/>
<path d="M70.6558 29.5323L69.2158 33.6123H71.7331L73.3013 29.5323H70.6558Z" fill="#D8EDFF"/>
<path d="M163.017 23.4123V41.1963H168.441V35.6534V34.7883L168.201 29.9883L168.177 25.1883V24.4897V23.4123H163.017Z" fill="#D8EDFF"/>
<path d="M130.512 54.2362C131.238 54.5135 132.032 54.6522 132.896 54.6522C133.686 54.6522 134.448 54.5348 135.184 54.3002C135.931 54.0548 136.582 53.6975 137.136 53.2282L135.6 53.0202V52.5049C135.31 52.6957 135.006 52.8461 134.688 52.9562C134.144 53.1375 133.574 53.2282 132.976 53.2282C132.336 53.2282 131.744 53.1215 131.2 52.9082C130.656 52.6948 130.182 52.3962 129.776 52.0122C129.382 51.6175 129.072 51.1588 128.848 50.6362C128.635 50.1028 128.528 49.5322 128.528 48.9242C128.528 48.3055 128.635 47.7348 128.848 47.2122C129.072 46.6788 129.382 46.2202 129.776 45.8362C130.182 45.4522 130.656 45.1535 131.2 44.9402C131.755 44.7268 132.352 44.6202 132.992 44.6202C133.622 44.6202 134.203 44.7268 134.736 44.9402C135.28 45.1428 135.782 45.4682 136.24 45.9162L137.232 44.9242C136.72 44.3482 136.096 43.9162 135.36 43.6282C134.624 43.3402 133.814 43.1962 132.928 43.1962C132.054 43.1962 131.254 43.3402 130.528 43.6282C129.803 43.9055 129.168 44.3055 128.624 44.8282C128.091 45.3402 127.675 45.9428 127.376 46.6362C127.078 47.3295 126.928 48.0922 126.928 48.9242C126.928 49.7562 127.078 50.5188 127.376 51.2122C127.675 51.9055 128.091 52.5135 128.624 53.0362C129.158 53.5482 129.787 53.9482 130.512 54.2362Z" fill="#1589EE"/>
<path d="M141.672 54.0602C142.365 54.4335 143.165 54.6202 144.072 54.6202C144.776 54.6202 145.41 54.5028 145.976 54.2682C146.552 54.0335 147.032 53.6922 147.416 53.2442L146.568 52.2522C146.258 52.5935 145.896 52.8495 145.48 53.0202C145.074 53.1908 144.621 53.2762 144.12 53.2762C143.512 53.2762 142.973 53.1535 142.504 52.9082C142.034 52.6628 141.666 52.3215 141.4 51.8842C141.211 51.5535 141.091 51.1908 141.042 50.7962C141.024 50.6562 141.016 50.5122 141.016 50.3642V50.1082C141.016 49.9652 141.023 49.8266 141.039 49.6922C141.084 49.3049 141.193 48.9529 141.368 48.6362C141.602 48.1988 141.928 47.8628 142.344 47.6282C142.76 47.3828 143.234 47.2602 143.768 47.2602C144.312 47.2602 144.786 47.3828 145.192 47.6282C145.608 47.8628 145.933 48.1935 146.168 48.6202C146.346 48.9438 146.453 49.3011 146.49 49.6922C146.502 49.8167 146.492 49.5607 146.49 49.6922H141.039C141.023 49.8266 141.016 49.9652 141.016 50.1082V50.3642C141.016 50.5122 141.024 50.6562 141.042 50.7962H147.928C147.938 50.7215 147.944 50.6415 147.944 50.5562C147.954 50.4708 147.96 50.3962 147.96 50.3322C147.96 49.4575 147.778 48.6948 147.416 48.0442C147.064 47.3828 146.573 46.8708 145.944 46.5082C145.314 46.1455 144.589 45.9642 143.768 45.9642C142.957 45.9642 142.226 46.1508 141.576 46.5242C140.936 46.8868 140.429 47.3935 140.056 48.0442C139.693 48.6948 139.512 49.4415 139.512 50.2842C139.512 51.1268 139.698 51.8735 140.072 52.5242C140.456 53.1748 140.989 53.6868 141.672 54.0602Z" fill="#1589EE"/>
<path d="M154.941 45.9642C155.634 45.9642 156.242 46.0975 156.765 46.3642C157.298 46.6308 157.714 47.0362 158.013 47.5802C158.311 48.1242 158.461 48.8122 158.461 49.6442V54.5242H156.924V49.8202C156.924 48.9988 156.722 48.3802 156.317 47.9642C155.922 47.5482 155.362 47.3402 154.637 47.3402C154.093 47.3402 153.618 47.4468 153.213 47.6602C152.807 47.8735 152.493 48.1882 152.269 48.6042C152.055 49.0202 151.949 49.5375 151.949 50.1562V54.5242H150.413V46.0442H151.885V47.3256C152.148 46.9581 152.495 46.659 152.924 46.4282C153.5 46.1188 154.173 45.9642 154.941 45.9642Z" fill="#1589EE"/>
<path d="M162.999 54.0602C163.692 54.4335 164.492 54.6202 165.399 54.6202C166.103 54.6202 166.738 54.5028 167.303 54.2682C167.879 54.0335 168.359 53.6922 168.743 53.2442L167.895 52.2522C167.586 52.5935 167.223 52.8495 166.807 53.0202C166.402 53.1908 165.948 53.2762 165.447 53.2762C164.839 53.2762 164.3 53.1535 163.831 52.9082C163.362 52.6628 162.994 52.3215 162.727 51.8842C162.538 51.5535 162.419 51.1908 162.369 50.7962C162.352 50.6562 162.343 50.5122 162.343 50.3642V50.1082C162.343 49.9652 162.351 49.8266 162.367 49.6922C162.411 49.3049 162.521 48.9529 162.695 48.6362C162.93 48.1988 163.255 47.8628 163.671 47.6282C164.087 47.3828 164.562 47.2602 165.095 47.2602C165.639 47.2602 166.114 47.3828 166.519 47.6282C166.935 47.8628 167.26 48.1935 167.495 48.6202C167.673 48.9438 167.781 49.3011 167.817 49.6922H162.367C162.351 49.8266 162.343 49.9652 162.343 50.1082V50.3642C162.343 50.5122 162.352 50.6562 162.369 50.7962H169.255C169.266 50.7215 169.271 50.6415 169.271 50.5562C169.282 50.4708 169.287 50.3962 169.287 50.3322C169.287 49.4575 169.106 48.6948 168.743 48.0442C168.391 47.3828 167.9 46.8708 167.271 46.5082C166.642 46.1455 165.916 45.9642 165.095 45.9642C164.284 45.9642 163.554 46.1508 162.903 46.5242C162.263 46.8868 161.756 47.3935 161.383 48.0442C161.02 48.6948 160.839 49.4415 160.839 50.2842C160.839 51.1268 161.026 51.8735 161.399 52.5242C161.783 53.1748 162.316 53.6868 162.999 54.0602Z" fill="#1589EE"/>
<path d="M171.74 54.5242V46.0442H173.212V47.4657C173.452 47.027 173.798 46.6812 174.252 46.4282C174.807 46.1188 175.489 45.9642 176.3 45.9642V47.4522C176.236 47.4415 176.172 47.4362 176.108 47.4362H175.948C175.127 47.4362 174.476 47.6815 173.996 48.1722C173.516 48.6628 173.276 49.3722 173.276 50.3002V54.5242H171.74Z" fill="#1589EE"/>
<path d="M183.152 53.4118V52.7322L183.072 52.3962V51.9322C182.88 52.4228 182.565 52.7962 182.128 53.0522C181.701 53.3082 181.2 53.4362 180.624 53.4362C180.037 53.4362 179.579 53.3135 179.248 53.0682C178.917 52.8122 178.752 52.4762 178.752 52.0602C178.752 51.6975 178.885 51.3882 179.152 51.1322C179.419 50.8762 179.936 50.7482 180.704 50.7482H183.072V49.6442H180.64C179.797 49.6442 179.125 49.7562 178.624 49.9802C178.133 50.2042 177.776 50.5028 177.552 50.8762C177.339 51.2495 177.232 51.6655 177.232 52.1242C177.232 52.6042 177.36 53.0362 177.616 53.4202C177.872 53.7935 178.235 54.0868 178.704 54.3002C179.184 54.5135 179.739 54.6202 180.368 54.6202C181.147 54.6202 181.792 54.4762 182.304 54.1882C182.663 53.979 182.945 53.7202 183.152 53.4118Z" fill="#1589EE"/>
<path fill-rule="evenodd" clip-rule="evenodd" d="M188.699 53.9322C189.168 54.3908 189.829 54.6202 190.683 54.6202C191.035 54.6202 191.371 54.5722 191.691 54.4762C192.021 54.3802 192.304 54.2308 192.539 54.0282L192.059 52.9242C191.739 53.1908 191.339 53.3242 190.859 53.3242C190.432 53.3242 190.101 53.2015 189.867 52.9562C189.643 52.7108 189.531 52.3588 189.531 51.9002V47.3082H191.963V46.0442H189.531V44.1882H187.995V46.0442H186.555V47.3082H187.995V51.9642C187.995 52.8175 188.229 53.4735 188.699 53.9322ZM187.995 47.3082H189.531V46.0442H187.995V47.3082Z" fill="#1589EE"/>
<path d="M187.995 47.3082H189.531V46.0442H187.995V47.3082Z" fill="#1589EE"/>
<path d="M204.911 54.5242V46.0442H206.383V47.4657C206.622 47.027 206.969 46.6812 207.423 46.4282C207.977 46.1188 208.66 45.9642 209.471 45.9642V47.4522C209.407 47.4415 209.343 47.4362 209.279 47.4362H209.119C208.297 47.4362 207.647 47.6815 207.167 48.1722C206.687 48.6628 206.447 49.3722 206.447 50.3002V54.5242H204.911Z" fill="#1589EE"/>
</svg>
